<svg width="129" height="129" viewBox="0 0 129 129" fill="none" xmlns="http://www.w3.org/2000/svg">
<path d="M26.8749 48.375C25.4493 48.375 24.0822 48.9413 23.0742 49.9493C22.0662 50.9573 21.4999 52.3245 21.4999 53.75V96.75C21.4999 98.1755 22.0662 99.5427 23.0742 100.551C24.0822 101.559 25.4493 102.125 26.8749 102.125H102.125C103.55 102.125 104.918 101.559 105.926 100.551C106.934 99.5427 107.5 98.1755 107.5 96.75V53.75C107.5 52.3245 106.934 50.9573 105.926 49.9493C104.918 48.9413 103.55 48.375 102.125 48.375H26.8749ZM37.6249 37.625V32.25C37.6249 27.9734 39.3238 23.8719 42.3478 20.8479C45.3718 17.8239 49.4733 16.125 53.7499 16.125H75.2499C79.5265 16.125 83.628 17.8239 86.652 20.8479C89.676 23.8719 91.3749 27.9734 91.3749 32.25V37.625H102.125C106.402 37.625 110.503 39.3239 113.527 42.3479C116.551 45.3719 118.25 49.4734 118.25 53.75V96.75C118.25 101.027 116.551 105.128 113.527 108.152C110.503 111.176 106.402 112.875 102.125 112.875H26.8749C22.5983 112.875 18.4968 111.176 15.4728 108.152C12.4488 105.128 10.7499 101.027 10.7499 96.75V53.75C10.7499 49.4734 12.4488 45.3719 15.4728 42.3479C18.4968 39.3239 22.5983 37.625 26.8749 37.625H37.6249ZM48.3749 37.625H80.6249V32.25C80.6249 30.8245 80.0586 29.4573 79.0506 28.4493C78.0426 27.4413 76.6754 26.875 75.2499 26.875H53.7499C52.3243 26.875 50.9572 27.4413 49.9492 28.4493C48.9412 29.4573 48.3749 30.8245 48.3749 32.25V37.625ZM59.1249 59.125H69.8749V91.375H59.1249V59.125ZM48.3749 69.875H80.6249V80.625H48.3749V69.875Z" fill="#6F6FC8"/>
</svg>
