<svg width="384" height="193" viewBox="0 0 384 193" fill="none" xmlns="http://www.w3.org/2000/svg">
<path d="M78.56 110.32C75.8667 110.32 73.52 109.747 71.52 108.6C69.52 107.427 67.9867 105.76 66.92 103.6C65.8533 101.413 65.32 98.84 65.32 95.88C65.32 92.9467 65.8533 90.4 66.92 88.24C67.9867 86.0533 69.52 84.3867 71.52 83.24C73.52 82.0667 75.8667 81.48 78.56 81.48C80.32 81.48 81.9867 81.76 83.56 82.32C85.1333 82.8533 86.5067 83.64 87.68 84.68C88.1867 85.08 88.44 85.6133 88.44 86.28C88.44 86.76 88.3067 87.1733 88.04 87.52C87.7733 87.84 87.4533 88 87.08 88C86.6267 88 86.1867 87.8267 85.76 87.48C84.48 86.52 83.3067 85.8533 82.24 85.48C81.2 85.08 80.0133 84.88 78.68 84.88C75.7467 84.88 73.4933 85.8267 71.92 87.72C70.3467 89.6133 69.56 92.3333 69.56 95.88C69.56 99.4533 70.3467 102.187 71.92 104.08C73.4933 105.973 75.7467 106.92 78.68 106.92C79.96 106.92 81.12 106.72 82.16 106.32C83.2267 105.92 84.4267 105.253 85.76 104.32C86.2933 103.973 86.7333 103.8 87.08 103.8C87.4533 103.8 87.7733 103.973 88.04 104.32C88.3067 104.64 88.44 105.04 88.44 105.52C88.44 106.187 88.1867 106.72 87.68 107.12C86.5067 108.16 85.1333 108.96 83.56 109.52C81.9867 110.053 80.32 110.32 78.56 110.32ZM107.76 105.08C108.133 105.08 108.44 105.227 108.68 105.52C108.92 105.813 109.04 106.187 109.04 106.64C109.04 107.413 108.56 108.067 107.6 108.6C106.666 109.133 105.64 109.547 104.52 109.84C103.426 110.133 102.373 110.28 101.36 110.28C98.2664 110.28 95.8264 109.387 94.0397 107.6C92.253 105.787 91.3597 103.32 91.3597 100.2C91.3597 98.2 91.7464 96.4267 92.5197 94.88C93.3197 93.3333 94.4264 92.1333 95.8397 91.28C97.2797 90.4267 98.9064 90 100.72 90C103.333 90 105.4 90.84 106.92 92.52C108.44 94.2 109.2 96.4667 109.2 99.32C109.2 100.387 108.72 100.92 107.76 100.92H95.3997C95.6664 105.053 97.653 107.12 101.36 107.12C102.346 107.12 103.2 106.987 103.92 106.72C104.64 106.453 105.4 106.107 106.2 105.68C106.28 105.627 106.493 105.52 106.84 105.36C107.213 105.173 107.52 105.08 107.76 105.08ZM100.8 92.96C99.253 92.96 98.013 93.4533 97.0797 94.44C96.1464 95.4267 95.5864 96.8133 95.3997 98.6H105.72C105.64 96.7867 105.173 95.4 104.32 94.44C103.493 93.4533 102.32 92.96 100.8 92.96ZM115.692 110.2C115.105 110.2 114.612 110.04 114.212 109.72C113.838 109.4 113.652 108.92 113.652 108.28V83.56C113.652 82.92 113.838 82.44 114.212 82.12C114.612 81.7733 115.105 81.6 115.692 81.6C116.278 81.6 116.758 81.7733 117.132 82.12C117.505 82.44 117.692 82.92 117.692 83.56V108.28C117.692 108.92 117.505 109.4 117.132 109.72C116.758 110.04 116.278 110.2 115.692 110.2ZM125.379 110.2C124.792 110.2 124.299 110.04 123.899 109.72C123.526 109.4 123.339 108.92 123.339 108.28V83.56C123.339 82.92 123.526 82.44 123.899 82.12C124.299 81.7733 124.792 81.6 125.379 81.6C125.966 81.6 126.446 81.7733 126.819 82.12C127.192 82.44 127.379 82.92 127.379 83.56V108.28C127.379 108.92 127.192 109.4 126.819 109.72C126.446 110.04 125.966 110.2 125.379 110.2ZM199.641 91.28C199.801 90.88 200.028 90.5867 200.321 90.4C200.641 90.2133 200.974 90.12 201.321 90.12C201.828 90.12 202.268 90.2933 202.641 90.64C203.041 90.9867 203.241 91.4 203.241 91.88C203.241 92.1467 203.188 92.4 203.081 92.64L195.441 108.84C195.254 109.267 194.961 109.6 194.561 109.84C194.188 110.053 193.788 110.16 193.361 110.16C192.934 110.16 192.521 110.053 192.121 109.84C191.748 109.6 191.468 109.267 191.281 108.84L183.641 92.64C183.534 92.4267 183.481 92.1733 183.481 91.88C183.481 91.4 183.694 90.9867 184.121 90.64C184.548 90.2933 185.028 90.12 185.561 90.12C186.334 90.12 186.908 90.4933 187.281 91.24L193.481 105L199.641 91.28ZM221.549 105.08C221.922 105.08 222.229 105.227 222.469 105.52C222.709 105.813 222.829 106.187 222.829 106.64C222.829 107.413 222.349 108.067 221.389 108.6C220.455 109.133 219.429 109.547 218.309 109.84C217.215 110.133 216.162 110.28 215.149 110.28C212.055 110.28 209.615 109.387 207.829 107.6C206.042 105.787 205.149 103.32 205.149 100.2C205.149 98.2 205.535 96.4267 206.309 94.88C207.109 93.3333 208.215 92.1333 209.629 91.28C211.069 90.4267 212.695 90 214.509 90C217.122 90 219.189 90.84 220.709 92.52C222.229 94.2 222.989 96.4667 222.989 99.32C222.989 100.387 222.509 100.92 221.549 100.92H209.189C209.455 105.053 211.442 107.12 215.149 107.12C216.135 107.12 216.989 106.987 217.709 106.72C218.429 106.453 219.189 106.107 219.989 105.68C220.069 105.627 220.282 105.52 220.629 105.36C221.002 105.173 221.309 105.08 221.549 105.08ZM214.589 92.96C213.042 92.96 211.802 93.4533 210.869 94.44C209.935 95.4267 209.375 96.8133 209.189 98.6H219.509C219.429 96.7867 218.962 95.4 218.109 94.44C217.282 93.4533 216.109 92.96 214.589 92.96ZM237.681 90.08C238.961 90 239.601 90.5467 239.601 91.72C239.601 92.3067 239.454 92.7467 239.161 93.04C238.867 93.3333 238.361 93.5067 237.641 93.56L236.441 93.68C234.761 93.84 233.507 94.4267 232.681 95.44C231.881 96.4533 231.481 97.68 231.481 99.12V108.28C231.481 108.92 231.294 109.4 230.921 109.72C230.547 110.04 230.067 110.2 229.481 110.2C228.894 110.2 228.401 110.04 228.001 109.72C227.627 109.4 227.441 108.92 227.441 108.28V92C227.441 91.3867 227.627 90.92 228.001 90.6C228.401 90.2533 228.894 90.08 229.481 90.08C230.014 90.08 230.454 90.2533 230.801 90.6C231.174 90.92 231.361 91.3733 231.361 91.96V93.88C231.894 92.7067 232.667 91.8133 233.681 91.2C234.694 90.5867 235.841 90.2267 237.121 90.12L237.681 90.08ZM252.969 84.88C251.635 84.9867 250.649 85.4133 250.009 86.16C249.369 86.88 249.049 87.9467 249.049 89.36V90.48H253.009C253.569 90.48 253.995 90.6267 254.289 90.92C254.609 91.1867 254.769 91.56 254.769 92.04C254.769 92.52 254.609 92.9067 254.289 93.2C253.995 93.4667 253.569 93.6 253.009 93.6H249.049V108.24C249.049 108.88 248.849 109.373 248.449 109.72C248.075 110.04 247.595 110.2 247.009 110.2C246.422 110.2 245.942 110.04 245.569 109.72C245.195 109.373 245.009 108.88 245.009 108.24V93.6H242.609C242.049 93.6 241.609 93.4667 241.289 93.2C240.995 92.9067 240.849 92.52 240.849 92.04C240.849 91.56 240.995 91.1867 241.289 90.92C241.609 90.6267 242.049 90.48 242.609 90.48H245.009V89.96C245.009 87.5067 245.635 85.5867 246.889 84.2C248.142 82.7867 249.915 82 252.209 81.84L253.249 81.76C254.102 81.7067 254.715 81.8 255.089 82.04C255.489 82.28 255.689 82.6667 255.689 83.2C255.689 84.1333 255.129 84.6667 254.009 84.8L252.969 84.88ZM259.489 110.2C258.902 110.2 258.409 110.04 258.009 109.72C257.635 109.4 257.449 108.92 257.449 108.28V83.56C257.449 82.92 257.635 82.44 258.009 82.12C258.409 81.7733 258.902 81.6 259.489 81.6C260.075 81.6 260.555 81.7733 260.929 82.12C261.302 82.44 261.489 82.92 261.489 83.56V108.28C261.489 108.92 261.302 109.4 260.929 109.72C260.555 110.04 260.075 110.2 259.489 110.2ZM275.608 110.28C273.688 110.28 271.995 109.867 270.528 109.04C269.088 108.213 267.968 107.04 267.168 105.52C266.395 103.973 266.008 102.187 266.008 100.16C266.008 98.1067 266.395 96.32 267.168 94.8C267.968 93.2533 269.088 92.0667 270.528 91.24C271.995 90.4133 273.688 90 275.608 90C277.528 90 279.208 90.4133 280.648 91.24C282.115 92.0667 283.235 93.2533 284.008 94.8C284.808 96.32 285.208 98.1067 285.208 100.16C285.208 102.187 284.808 103.973 284.008 105.52C283.235 107.04 282.115 108.213 280.648 109.04C279.208 109.867 277.528 110.28 275.608 110.28ZM275.608 107.08C277.395 107.08 278.755 106.493 279.688 105.32C280.648 104.147 281.128 102.427 281.128 100.16C281.128 97.92 280.648 96.2133 279.688 95.04C278.728 93.84 277.368 93.24 275.608 93.24C273.848 93.24 272.488 93.84 271.528 95.04C270.568 96.2133 270.088 97.92 270.088 100.16C270.088 102.427 270.555 104.147 271.488 105.32C272.448 106.493 273.821 107.08 275.608 107.08ZM315.993 91.32C316.286 90.52 316.833 90.12 317.633 90.12C318.139 90.12 318.593 90.2933 318.993 90.64C319.393 90.9867 319.593 91.4133 319.593 91.92C319.593 92.1867 319.539 92.4267 319.433 92.64L312.793 108.84C312.633 109.267 312.366 109.6 311.993 109.84C311.619 110.053 311.206 110.16 310.753 110.16C310.326 110.16 309.926 110.053 309.553 109.84C309.179 109.6 308.913 109.267 308.753 108.84L303.553 96L298.473 108.84C298.313 109.267 298.046 109.6 297.673 109.84C297.326 110.053 296.926 110.16 296.473 110.16C296.046 110.16 295.633 110.053 295.233 109.84C294.859 109.6 294.579 109.267 294.393 108.84L287.793 92.64C287.686 92.4267 287.633 92.2 287.633 91.96C287.633 91.4267 287.846 90.9867 288.273 90.64C288.726 90.2933 289.219 90.12 289.753 90.12C290.553 90.12 291.099 90.5067 291.393 91.28L296.553 104.92L301.833 91.4C301.993 90.9733 302.246 90.6533 302.593 90.44C302.939 90.2267 303.313 90.12 303.713 90.12C304.086 90.12 304.446 90.2267 304.793 90.44C305.139 90.6533 305.393 90.9733 305.553 91.4L310.833 104.84L315.993 91.32Z" fill="#F9F9F9"/>
<path d="M142.208 87.375C141.667 87.375 141.147 87.5901 140.765 87.973C140.382 88.3559 140.167 88.8752 140.167 89.4167V105.75C140.167 106.291 140.382 106.811 140.765 107.194C141.147 107.577 141.667 107.792 142.208 107.792H170.792C171.333 107.792 171.852 107.577 172.235 107.194C172.618 106.811 172.833 106.291 172.833 105.75V89.4167C172.833 88.8752 172.618 88.3559 172.235 87.973C171.852 87.5901 171.333 87.375 170.792 87.375H142.208ZM146.292 83.2917V81.25C146.292 79.6255 146.937 78.0676 148.086 76.919C149.234 75.7703 150.792 75.125 152.417 75.125H160.583C162.208 75.125 163.766 75.7703 164.914 76.919C166.063 78.0676 166.708 79.6255 166.708 81.25V83.2917H170.792C172.416 83.2917 173.974 83.937 175.123 85.0856C176.271 86.2343 176.917 87.7922 176.917 89.4167V105.75C176.917 107.374 176.271 108.932 175.123 110.081C173.974 111.23 172.416 111.875 170.792 111.875H142.208C140.584 111.875 139.026 111.23 137.877 110.081C136.729 108.932 136.083 107.374 136.083 105.75V89.4167C136.083 87.7922 136.729 86.2343 137.877 85.0856C139.026 83.937 140.584 83.2917 142.208 83.2917H146.292ZM150.375 83.2917H162.625V81.25C162.625 80.7085 162.41 80.1892 162.027 79.8063C161.644 79.4234 161.125 79.2083 160.583 79.2083H152.417C151.875 79.2083 151.356 79.4234 150.973 79.8063C150.59 80.1892 150.375 80.7085 150.375 81.25V83.2917ZM154.458 91.4583H158.542V103.708H154.458V91.4583ZM150.375 95.5417H162.625V99.625H150.375V95.5417Z" fill="#6F6FC8"/>
</svg>
