<svg width="258" height="55" viewBox="0 0 258 55" fill="none" xmlns="http://www.w3.org/2000/svg">
<path d="M15.56 41.32C12.8667 41.32 10.52 40.7467 8.52 39.6C6.52 38.4267 4.98667 36.76 3.92 34.6C2.85333 32.4133 2.32 29.84 2.32 26.88C2.32 23.9467 2.85333 21.4 3.92 19.24C4.98667 17.0533 6.52 15.3867 8.52 14.24C10.52 13.0667 12.8667 12.48 15.56 12.48C17.32 12.48 18.9867 12.76 20.56 13.32C22.1333 13.8533 23.5067 14.64 24.68 15.68C25.1867 16.08 25.44 16.6133 25.44 17.28C25.44 17.76 25.3067 18.1733 25.04 18.52C24.7733 18.84 24.4533 19 24.08 19C23.6267 19 23.1867 18.8267 22.76 18.48C21.48 17.52 20.3067 16.8533 19.24 16.48C18.2 16.08 17.0133 15.88 15.68 15.88C12.7467 15.88 10.4933 16.8267 8.92 18.72C7.34667 20.6133 6.56 23.3333 6.56 26.88C6.56 30.4533 7.34667 33.1867 8.92 35.08C10.4933 36.9733 12.7467 37.92 15.68 37.92C16.96 37.92 18.12 37.72 19.16 37.32C20.2267 36.92 21.4267 36.2533 22.76 35.32C23.2933 34.9733 23.7333 34.8 24.08 34.8C24.4533 34.8 24.7733 34.9733 25.04 35.32C25.3067 35.64 25.44 36.04 25.44 36.52C25.44 37.1867 25.1867 37.72 24.68 38.12C23.5067 39.16 22.1333 39.96 20.56 40.52C18.9867 41.0533 17.32 41.32 15.56 41.32ZM44.7597 36.08C45.133 36.08 45.4397 36.2267 45.6797 36.52C45.9197 36.8133 46.0397 37.1867 46.0397 37.64C46.0397 38.4133 45.5597 39.0667 44.5997 39.6C43.6664 40.1333 42.6397 40.5467 41.5197 40.84C40.4264 41.1333 39.373 41.28 38.3597 41.28C35.2664 41.28 32.8264 40.3867 31.0397 38.6C29.253 36.7867 28.3597 34.32 28.3597 31.2C28.3597 29.2 28.7464 27.4267 29.5197 25.88C30.3197 24.3333 31.4264 23.1333 32.8397 22.28C34.2797 21.4267 35.9064 21 37.7197 21C40.333 21 42.3997 21.84 43.9197 23.52C45.4397 25.2 46.1997 27.4667 46.1997 30.32C46.1997 31.3867 45.7197 31.92 44.7597 31.92H32.3997C32.6664 36.0533 34.653 38.12 38.3597 38.12C39.3464 38.12 40.1997 37.9867 40.9197 37.72C41.6397 37.4533 42.3997 37.1067 43.1997 36.68C43.2797 36.6267 43.493 36.52 43.8397 36.36C44.213 36.1733 44.5197 36.08 44.7597 36.08ZM37.7997 23.96C36.253 23.96 35.013 24.4533 34.0797 25.44C33.1464 26.4267 32.5864 27.8133 32.3997 29.6H42.7197C42.6397 27.7867 42.173 26.4 41.3197 25.44C40.493 24.4533 39.3197 23.96 37.7997 23.96ZM52.6916 41.2C52.1049 41.2 51.6116 41.04 51.2116 40.72C50.8382 40.4 50.6516 39.92 50.6516 39.28V14.56C50.6516 13.92 50.8382 13.44 51.2116 13.12C51.6116 12.7733 52.1049 12.6 52.6916 12.6C53.2782 12.6 53.7582 12.7733 54.1316 13.12C54.5049 13.44 54.6916 13.92 54.6916 14.56V39.28C54.6916 39.92 54.5049 40.4 54.1316 40.72C53.7582 41.04 53.2782 41.2 52.6916 41.2ZM62.3791 41.2C61.7924 41.2 61.2991 41.04 60.8991 40.72C60.5257 40.4 60.3391 39.92 60.3391 39.28V14.56C60.3391 13.92 60.5257 13.44 60.8991 13.12C61.2991 12.7733 61.7924 12.6 62.3791 12.6C62.9657 12.6 63.4457 12.7733 63.8191 13.12C64.1924 13.44 64.3791 13.92 64.3791 14.56V39.28C64.3791 39.92 64.1924 40.4 63.8191 40.72C63.4457 41.04 62.9657 41.2 62.3791 41.2ZM136.641 22.28C136.801 21.88 137.028 21.5867 137.321 21.4C137.641 21.2133 137.974 21.12 138.321 21.12C138.828 21.12 139.268 21.2933 139.641 21.64C140.041 21.9867 140.241 22.4 140.241 22.88C140.241 23.1467 140.188 23.4 140.081 23.64L132.441 39.84C132.254 40.2667 131.961 40.6 131.561 40.84C131.188 41.0533 130.788 41.16 130.361 41.16C129.934 41.16 129.521 41.0533 129.121 40.84C128.748 40.6 128.468 40.2667 128.281 39.84L120.641 23.64C120.534 23.4267 120.481 23.1733 120.481 22.88C120.481 22.4 120.694 21.9867 121.121 21.64C121.548 21.2933 122.028 21.12 122.561 21.12C123.334 21.12 123.908 21.4933 124.281 22.24L130.481 36L136.641 22.28ZM158.549 36.08C158.922 36.08 159.229 36.2267 159.469 36.52C159.709 36.8133 159.829 37.1867 159.829 37.64C159.829 38.4133 159.349 39.0667 158.389 39.6C157.455 40.1333 156.429 40.5467 155.309 40.84C154.215 41.1333 153.162 41.28 152.149 41.28C149.055 41.28 146.615 40.3867 144.829 38.6C143.042 36.7867 142.149 34.32 142.149 31.2C142.149 29.2 142.535 27.4267 143.309 25.88C144.109 24.3333 145.215 23.1333 146.629 22.28C148.069 21.4267 149.695 21 151.509 21C154.122 21 156.189 21.84 157.709 23.52C159.229 25.2 159.989 27.4667 159.989 30.32C159.989 31.3867 159.509 31.92 158.549 31.92H146.189C146.455 36.0533 148.442 38.12 152.149 38.12C153.135 38.12 153.989 37.9867 154.709 37.72C155.429 37.4533 156.189 37.1067 156.989 36.68C157.069 36.6267 157.282 36.52 157.629 36.36C158.002 36.1733 158.309 36.08 158.549 36.08ZM151.589 23.96C150.042 23.96 148.802 24.4533 147.869 25.44C146.935 26.4267 146.375 27.8133 146.189 29.6H156.509C156.429 27.7867 155.962 26.4 155.109 25.44C154.282 24.4533 153.109 23.96 151.589 23.96ZM174.681 21.08C175.961 21 176.601 21.5467 176.601 22.72C176.601 23.3067 176.454 23.7467 176.161 24.04C175.867 24.3333 175.361 24.5067 174.641 24.56L173.441 24.68C171.761 24.84 170.507 25.4267 169.681 26.44C168.881 27.4533 168.481 28.68 168.481 30.12V39.28C168.481 39.92 168.294 40.4 167.921 40.72C167.547 41.04 167.067 41.2 166.481 41.2C165.894 41.2 165.401 41.04 165.001 40.72C164.627 40.4 164.441 39.92 164.441 39.28V23C164.441 22.3867 164.627 21.92 165.001 21.6C165.401 21.2533 165.894 21.08 166.481 21.08C167.014 21.08 167.454 21.2533 167.801 21.6C168.174 21.92 168.361 22.3733 168.361 22.96V24.88C168.894 23.7067 169.667 22.8133 170.681 22.2C171.694 21.5867 172.841 21.2267 174.121 21.12L174.681 21.08ZM189.969 15.88C188.635 15.9867 187.649 16.4133 187.009 17.16C186.369 17.88 186.049 18.9467 186.049 20.36V21.48H190.009C190.569 21.48 190.995 21.6267 191.289 21.92C191.609 22.1867 191.769 22.56 191.769 23.04C191.769 23.52 191.609 23.9067 191.289 24.2C190.995 24.4667 190.569 24.6 190.009 24.6H186.049V39.24C186.049 39.88 185.849 40.3733 185.449 40.72C185.075 41.04 184.595 41.2 184.009 41.2C183.422 41.2 182.942 41.04 182.569 40.72C182.195 40.3733 182.009 39.88 182.009 39.24V24.6H179.609C179.049 24.6 178.609 24.4667 178.289 24.2C177.995 23.9067 177.849 23.52 177.849 23.04C177.849 22.56 177.995 22.1867 178.289 21.92C178.609 21.6267 179.049 21.48 179.609 21.48H182.009V20.96C182.009 18.5067 182.635 16.5867 183.889 15.2C185.142 13.7867 186.915 13 189.209 12.84L190.249 12.76C191.102 12.7067 191.715 12.8 192.089 13.04C192.489 13.28 192.689 13.6667 192.689 14.2C192.689 15.1333 192.129 15.6667 191.009 15.8L189.969 15.88ZM196.489 41.2C195.902 41.2 195.409 41.04 195.009 40.72C194.635 40.4 194.449 39.92 194.449 39.28V14.56C194.449 13.92 194.635 13.44 195.009 13.12C195.409 12.7733 195.902 12.6 196.489 12.6C197.075 12.6 197.555 12.7733 197.929 13.12C198.302 13.44 198.489 13.92 198.489 14.56V39.28C198.489 39.92 198.302 40.4 197.929 40.72C197.555 41.04 197.075 41.2 196.489 41.2ZM212.608 41.28C210.688 41.28 208.995 40.8667 207.528 40.04C206.088 39.2133 204.968 38.04 204.168 36.52C203.395 34.9733 203.008 33.1867 203.008 31.16C203.008 29.1067 203.395 27.32 204.168 25.8C204.968 24.2533 206.088 23.0667 207.528 22.24C208.995 21.4133 210.688 21 212.608 21C214.528 21 216.208 21.4133 217.648 22.24C219.115 23.0667 220.235 24.2533 221.008 25.8C221.808 27.32 222.208 29.1067 222.208 31.16C222.208 33.1867 221.808 34.9733 221.008 36.52C220.235 38.04 219.115 39.2133 217.648 40.04C216.208 40.8667 214.528 41.28 212.608 41.28ZM212.608 38.08C214.395 38.08 215.755 37.4933 216.688 36.32C217.648 35.1467 218.128 33.4267 218.128 31.16C218.128 28.92 217.648 27.2133 216.688 26.04C215.728 24.84 214.368 24.24 212.608 24.24C210.848 24.24 209.488 24.84 208.528 26.04C207.568 27.2133 207.088 28.92 207.088 31.16C207.088 33.4267 207.555 35.1467 208.488 36.32C209.448 37.4933 210.821 38.08 212.608 38.08ZM252.993 22.32C253.286 21.52 253.833 21.12 254.633 21.12C255.139 21.12 255.593 21.2933 255.993 21.64C256.393 21.9867 256.593 22.4133 256.593 22.92C256.593 23.1867 256.539 23.4267 256.433 23.64L249.793 39.84C249.633 40.2667 249.366 40.6 248.993 40.84C248.619 41.0533 248.206 41.16 247.753 41.16C247.326 41.16 246.926 41.0533 246.553 40.84C246.179 40.6 245.913 40.2667 245.753 39.84L240.553 27L235.473 39.84C235.313 40.2667 235.046 40.6 234.673 40.84C234.326 41.0533 233.926 41.16 233.473 41.16C233.046 41.16 232.633 41.0533 232.233 40.84C231.859 40.6 231.579 40.2667 231.393 39.84L224.793 23.64C224.686 23.4267 224.633 23.2 224.633 22.96C224.633 22.4267 224.846 21.9867 225.273 21.64C225.726 21.2933 226.219 21.12 226.753 21.12C227.553 21.12 228.099 21.5067 228.393 22.28L233.553 35.92L238.833 22.4C238.993 21.9733 239.246 21.6533 239.593 21.44C239.939 21.2267 240.313 21.12 240.713 21.12C241.086 21.12 241.446 21.2267 241.793 21.44C242.139 21.6533 242.393 21.9733 242.553 22.4L247.833 35.84L252.993 22.32Z" fill="#F9F9F9"/>
<path d="M79.2083 18.375C78.6668 18.375 78.1475 18.5901 77.7646 18.973C77.3817 19.3559 77.1666 19.8752 77.1666 20.4167V36.75C77.1666 37.2915 77.3817 37.8108 77.7646 38.1937C78.1475 38.5766 78.6668 38.7917 79.2083 38.7917H107.792C108.333 38.7917 108.852 38.5766 109.235 38.1937C109.618 37.8108 109.833 37.2915 109.833 36.75V20.4167C109.833 19.8752 109.618 19.3559 109.235 18.973C108.852 18.5901 108.333 18.375 107.792 18.375H79.2083ZM83.2916 14.2917V12.25C83.2916 10.6255 83.9369 9.06763 85.0856 7.91897C86.2342 6.77031 87.7921 6.125 89.4166 6.125H97.5833C99.2077 6.125 100.766 6.77031 101.914 7.91897C103.063 9.06763 103.708 10.6255 103.708 12.25V14.2917H107.792C109.416 14.2917 110.974 14.937 112.123 16.0856C113.271 17.2343 113.917 18.7922 113.917 20.4167V36.75C113.917 38.3745 113.271 39.9324 112.123 41.081C110.974 42.2297 109.416 42.875 107.792 42.875H79.2083C77.5838 42.875 76.0259 42.2297 74.8772 41.081C73.7286 39.9324 73.0833 38.3745 73.0833 36.75V20.4167C73.0833 18.7922 73.7286 17.2343 74.8772 16.0856C76.0259 14.937 77.5838 14.2917 79.2083 14.2917H83.2916ZM87.3749 14.2917H99.6249V12.25C99.6249 11.7085 99.4098 11.1892 99.0269 10.8063C98.644 10.4234 98.1247 10.2083 97.5833 10.2083H89.4166C88.8751 10.2083 88.3558 10.4234 87.9729 10.8063C87.59 11.1892 87.3749 11.7085 87.3749 12.25V14.2917ZM91.4583 22.4583H95.5416V34.7083H91.4583V22.4583ZM87.3749 26.5417H99.6249V30.625H87.3749V26.5417Z" fill="#6F6FC8"/>
</svg>
