<svg width="212" height="212" viewBox="0 0 212 212" fill="none" xmlns="http://www.w3.org/2000/svg">
<path d="M170.642 97.1195L170.707 97.0841C162.06 100.986 152.326 101.761 143.171 99.2748C133.698 96.7527 125.449 90.9088 119.927 82.8094C120.039 82.9743 120.127 83.151 120.245 83.3159L111.889 82.4443L110.635 90.1117C116.604 98.5687 124.941 105.072 134.596 108.803L134.102 110.634C131.699 119.591 132.482 130.044 133.313 141.115C134.396 155.543 135.521 170.466 129.397 181.943C123.637 192.714 112.195 199.133 98.7449 199.133H98.5564C86.019 199.074 74.6299 193.362 70.2132 184.911C67.045 178.845 66.6975 170.595 66.3265 161.874C65.7318 147.782 65.0663 131.817 52.9705 118.043L29.7153 91.5368L20.8643 99.3042L44.1195 125.804C53.4711 136.469 54.0246 149.631 54.5605 162.368C54.9669 172.003 55.385 181.967 59.7722 190.364C66.2559 202.766 81.4551 210.834 98.5034 210.91H98.7507C116.624 210.91 131.952 202.171 139.785 187.49C147.523 172.998 146.215 155.59 145.055 140.232C144.301 130.197 143.589 120.71 145.473 113.697L145.974 111.824C148.63 112.23 151.286 112.489 153.936 112.489C161.338 112.458 168.651 110.862 175.395 107.808L176.667 100.111L170.642 97.1195Z" fill="#6F6FC8"/>
<path d="M7.40821 111.105C3.28732 106.408 1.20117 100.266 1.60869 94.0309C2.0162 87.7955 4.88401 81.9774 9.58121 77.8566C14.2784 73.7357 20.4203 71.6495 26.6556 72.057C32.8909 72.4646 38.709 75.3324 42.8299 80.0296C46.9508 84.7268 49.0369 90.8686 48.6294 97.1039C48.2219 103.339 45.3541 109.157 40.6569 113.278C38.3311 115.319 35.6261 116.881 32.6965 117.876C29.7669 118.871 26.6699 119.28 23.5825 119.078C17.3472 118.67 11.5291 115.802 7.40821 111.105V111.105Z" fill="#F9F9F9"/>
<path d="M16.2651 103.339C15.1971 102.185 14.3711 100.829 13.8357 99.3499C13.3004 97.8712 13.0666 96.3003 13.1481 94.7298C13.2297 93.1594 13.6249 91.6211 14.3105 90.2058C14.9961 88.7906 15.9582 87.5269 17.14 86.4894C18.3218 85.452 19.6994 84.6617 21.1916 84.1652C22.6837 83.6687 24.2602 83.476 25.828 83.5986C27.3958 83.7211 28.9232 84.1564 30.32 84.8788C31.7169 85.6011 32.955 86.5959 33.9612 87.8044C35.9258 90.164 36.8913 93.1974 36.652 96.2584C36.4127 99.3195 34.9876 102.166 32.6802 104.192C30.3728 106.217 27.3656 107.262 24.2994 107.102C21.2332 106.943 18.3503 105.593 16.2651 103.339V103.339Z" fill="#6F6FC8"/>
<path d="M175.436 107.872L170.642 97.119C176.251 94.6286 181.23 90.914 185.216 86.2479C189.201 81.5818 192.091 76.0826 193.674 70.1538L198.255 53.0937C199.06 50.0764 198.636 46.8632 197.077 44.1578C195.517 41.4524 192.949 39.4754 189.934 38.66L192.997 27.2827C199.026 28.9107 204.163 32.8635 207.281 38.274C210.4 43.6845 211.246 50.1111 209.633 56.1441L205.051 73.2042C203.015 80.8269 199.299 87.897 194.174 93.896C189.049 99.8949 182.647 104.67 175.436 107.872V107.872ZM110.623 90.123C106.106 83.7636 103.051 76.4842 101.676 68.8059C100.302 61.1276 100.642 53.2404 102.673 45.709L107.254 28.6489C108.88 22.6192 112.831 17.4806 118.241 14.3607C123.65 11.2407 130.077 10.3942 136.11 12.0069L133.054 23.3842C130.037 22.5762 126.823 22.9988 124.118 24.559C121.412 26.1192 119.437 28.6895 118.626 31.7052L114.044 48.7712C112.462 54.63 112.197 60.7664 113.267 66.7399C114.337 72.7135 116.716 78.3761 120.233 83.3214L110.623 90.123V90.123Z" fill="#F9F9F9"/>
<path d="M132.853 35.5214C130.591 34.913 128.663 33.4309 127.494 31.401C126.324 29.3712 126.009 26.9599 126.617 24.6976L131.199 7.6375C131.821 5.39147 133.307 3.48263 135.331 2.32693C137.355 1.17123 139.754 0.862344 142.004 1.46759C144.255 2.07283 146.176 3.54315 147.347 5.55813C148.519 7.57312 148.846 9.96945 148.259 12.2249L143.677 29.2851C143.069 31.5473 141.587 33.4753 139.557 34.6448C137.527 35.8143 135.116 36.1296 132.853 35.5214V35.5214ZM184.04 49.2719C181.777 48.6635 179.849 47.1814 178.68 45.1516C177.51 43.1218 177.195 40.7105 177.803 38.4482L182.385 21.3881C182.993 19.125 184.476 17.1962 186.506 16.0261C188.536 14.856 190.948 14.5404 193.212 15.1488C195.475 15.7571 197.403 17.2395 198.573 19.2699C199.744 21.3003 200.059 23.7124 199.451 25.9755L194.869 43.0356C194.26 45.2983 192.776 47.2263 190.745 48.3958C188.715 49.5652 186.303 49.8803 184.04 49.2719V49.2719Z" fill="#6F6FC8"/>
</svg>
